<?xml version="1.0" encoding="UTF-8"?>
<svg width="48px" height="48px" viewBox="0 0 48 48" version="1.1" xmlns="http://www.w3.org/2000/svg" xmlns:xlink="http://www.w3.org/1999/xlink">
    <!-- Generator: Sketch 40.1 (33804) - http://www.bohemiancoding.com/sketch -->
    <title>Chart-Bars_48</title>
    <desc>Created with Sketch.</desc>
    <defs>
        <polygon id="path-1" points="0 4663 3252.123 4663 3252.123 0 0 0"></polygon>
    </defs>
    <g stroke="none" stroke-width="1" fill="none" fill-rule="evenodd">
        <g transform="translate(-354.000000, -3501.000000)">
            <g>
                <g transform="translate(0.000000, 1.000000)">
                    <mask id="mask-2" fill="white">
                        <use xlink:href="#path-1"></use>
                    </mask>
                    <g></g>
                    <path d="M390.121,3546 L395.121,3546 L395.121,3521 L390.121,3521 L390.121,3546 Z M376.121,3546 L381.121,3546 L381.121,3505 L376.121,3505 L376.121,3546 Z M362.121,3546 L367.121,3546 L367.121,3521 L362.121,3521 L362.121,3546 Z M397.121,3520 C397.121,3519.45 396.673,3519 396.121,3519 L389.121,3519 C388.569,3519 388.121,3519.45 388.121,3520 L388.121,3546 L383.121,3546 L383.121,3504 C383.121,3503.45 382.673,3503 382.121,3503 L375.121,3503 C374.569,3503 374.121,3503.45 374.121,3504 L374.121,3546 L369.121,3546 L369.121,3520 C369.121,3519.45 368.673,3519 368.121,3519 L361.121,3519 C360.569,3519 360.121,3519.45 360.121,3520 L360.121,3546 L356.121,3546 L356.121,3500 L354.121,3500 L354.121,3546 L354.121,3547 L354.121,3548 L360.121,3548 L369.121,3548 L374.121,3548 L383.121,3548 L388.121,3548 L397.121,3548 L402.121,3548 L402.121,3546 L397.121,3546 L397.121,3520 Z" id="Fill-2059" fill="#000000" mask="url(#mask-2)"></path>
                </g>
            </g>
            <g transform="translate(210.000000, 1.000000)"></g>
        </g>
    </g>
</svg>