<?xml version="1.0" encoding="UTF-8"?>
<svg width="48px" height="48px" viewBox="0 0 48 48" version="1.1" xmlns="http://www.w3.org/2000/svg" xmlns:xlink="http://www.w3.org/1999/xlink">
    <!-- Generator: Sketch 40.1 (33804) - http://www.bohemiancoding.com/sketch -->
    <title>Cloud-Sync_48</title>
    <desc>Created with Sketch.</desc>
    <defs>
        <polygon id="path-1" points="0 4663 3252.123 4663 3252.123 0 0 0"></polygon>
    </defs>
    <g stroke="none" stroke-width="1" fill="none" fill-rule="evenodd">
        <g transform="translate(-354.000000, -4551.000000)">
            <g>
                <g transform="translate(0.000000, 1.000000)">
                    <mask id="mask-2" fill="white">
                        <use xlink:href="#path-1"></use>
                    </mask>
                    <g></g>
                    <path d="M392.1208,4588 L364.1208,4588 C359.7098,4588 356.1208,4584.41 356.1208,4580 C356.1208,4576.78 358.0388,4573.88 361.0078,4572.63 L362.4398,4572.02 L362.2058,4570.48 C362.1478,4570.1 362.1208,4569.79 362.1208,4569.5 C362.1208,4565.92 365.0368,4563 368.6208,4563 C370.2538,4563 371.8198,4563.62 373.0298,4564.74 L374.9658,4566.53 L376.1678,4564.18 C377.8058,4560.98 381.0448,4559 384.6208,4559 C389.8598,4559 394.1208,4563.26 394.1208,4568.5 C394.1208,4569.11 394.0588,4569.74 393.9358,4570.36 L393.6158,4571.97 L395.1418,4572.59 C398.1658,4573.83 400.1208,4576.74 400.1208,4580 C400.1208,4584.41 396.5318,4588 392.1208,4588 M395.8988,4570.74 C396.0418,4570.02 396.1208,4569.27 396.1208,4568.5 C396.1208,4562.15 390.9718,4557 384.6208,4557 C380.1558,4557 376.2938,4559.55 374.3878,4563.27 C372.8718,4561.86 370.8508,4561 368.6208,4561 C363.9268,4561 360.1208,4564.81 360.1208,4569.5 C360.1208,4569.94 360.1638,4570.36 360.2288,4570.79 C356.6388,4572.3 354.1218,4575.86 354.1218,4580 C354.1218,4585.52 358.5988,4590 364.1208,4590 L392.1208,4590 C397.6438,4590 402.1208,4585.52 402.1208,4580 C402.1208,4575.81 399.5478,4572.23 395.8988,4570.74" id="Fill-2483" fill="#000000" mask="url(#mask-2)"></path>
                    <path d="M383.7117,4581.1943 C382.4337,4582.8933 380.4067,4583.9993 378.1207,4583.9993 C374.9557,4583.9993 372.2787,4581.8873 371.4157,4579.0003 L375.6207,4579.0003 L373.6207,4577.0003 L371.4647,4574.8433 L370.6207,4574.0003 L369.2807,4575.3403 L367.6207,4577.0003 L365.6207,4579.0003 L368.3227,4579.0003 L369.3517,4579.0003 C370.2627,4583.0063 373.8387,4586.0003 378.1207,4586.0003 C378.4627,4586.0003 378.7997,4585.9763 379.1317,4585.9393 C379.2427,4585.9273 379.3497,4585.9063 379.4587,4585.8903 C379.6787,4585.8573 379.8967,4585.8203 380.1107,4585.7723 C380.2367,4585.7433 380.3607,4585.7093 380.4837,4585.6753 C380.6767,4585.6233 380.8667,4585.5663 381.0537,4585.5013 C381.1797,4585.4583 381.3047,4585.4133 381.4277,4585.3643 C381.6097,4585.2923 381.7877,4585.2123 381.9637,4585.1293 C382.0797,4585.0743 382.1967,4585.0223 382.3097,4584.9623 C382.5037,4584.8603 382.6917,4584.7463 382.8767,4584.6303 C382.9617,4584.5773 383.0497,4584.5303 383.1317,4584.4753 C383.3887,4584.3023 383.6367,4584.1163 383.8747,4583.9183 C383.9537,4583.8523 384.0277,4583.7783 384.1047,4583.7093 C384.2647,4583.5653 384.4237,4583.4203 384.5727,4583.2663 C384.6577,4583.1793 384.7367,4583.0873 384.8187,4582.9963 C384.9527,4582.8463 385.0837,4582.6933 385.2077,4582.5343 C385.2437,4582.4883 385.2777,4582.4403 385.3127,4582.3933 L383.7187,4581.2003 L383.7117,4581.1943 Z" id="Fill-2484" fill="#000000" mask="url(#mask-2)"></path>
                    <path d="M386.8892,4574.9998 C385.9792,4570.9938 382.4032,4567.9998 378.1212,4567.9998 C377.7792,4567.9998 377.4422,4568.0228 377.1102,4568.0608 C376.9982,4568.0728 376.8892,4568.0938 376.7792,4568.1108 C376.5612,4568.1438 376.3462,4568.1798 376.1342,4568.2278 C376.0042,4568.2568 375.8782,4568.2918 375.7512,4568.3258 C375.5632,4568.3768 375.3772,4568.4338 375.1942,4568.4968 C375.0642,4568.5418 374.9342,4568.5878 374.8072,4568.6378 C374.6312,4568.7078 374.4612,4568.7848 374.2912,4568.8648 C374.1692,4568.9228 374.0452,4568.9778 373.9252,4569.0408 C373.7452,4569.1358 373.5712,4569.2428 373.3982,4569.3498 C373.3002,4569.4098 373.1982,4569.4648 373.1032,4569.5288 C372.8502,4569.6988 372.6072,4569.8818 372.3732,4570.0768 C372.2812,4570.1528 372.1962,4570.2378 372.1072,4570.3178 C371.9602,4570.4508 371.8132,4570.5838 371.6752,4570.7268 C371.5832,4570.8208 371.4972,4570.9208 371.4102,4571.0188 C371.2832,4571.1608 371.1592,4571.3058 371.0412,4571.4558 C371.0032,4571.5048 370.9662,4571.5558 370.9282,4571.6068 L372.5232,4572.7998 L372.5302,4572.8058 C373.8082,4571.1058 375.8352,4569.9998 378.1212,4569.9998 C381.2852,4569.9998 383.9632,4572.1118 384.8262,4574.9998 L380.6212,4574.9998 L382.6212,4576.9998 L384.7772,4579.1568 L385.6212,4579.9998 L386.9602,4578.6608 L388.6212,4576.9998 L390.6212,4574.9998 L387.9192,4574.9998 L386.8892,4574.9998 Z" id="Fill-2485" fill="#000000" mask="url(#mask-2)"></path>
                </g>
            </g>
            <g transform="translate(210.000000, 1.000000)"></g>
        </g>
    </g>
</svg>