<?xml version="1.0" encoding="UTF-8"?>
<svg width="48px" height="48px" viewBox="0 0 48 48" version="1.1" xmlns="http://www.w3.org/2000/svg" xmlns:xlink="http://www.w3.org/1999/xlink">
    <!-- Generator: Sketch 40.1 (33804) - http://www.bohemiancoding.com/sketch -->
    <title>List_48</title>
    <desc>Created with Sketch.</desc>
    <defs>
        <polygon id="path-1" points="0 4663 3252.123 4663 3252.123 0 0 0"></polygon>
    </defs>
    <g stroke="none" stroke-width="1" fill="none" fill-rule="evenodd">
        <g transform="translate(-2114.000000, -491.000000)">
            <g>
                <g transform="translate(0.000000, 1.000000)">
                    <mask id="mask-2" fill="white">
                        <use xlink:href="#path-1"></use>
                    </mask>
                    <g></g>
                    <path d="M2119.121,536 L2157.121,536 L2157.121,492 L2119.121,492 L2119.121,536 Z M2158.121,490 L2118.121,490 C2117.571,490 2117.121,490.448 2117.121,491 L2117.121,537 C2117.121,537.552 2117.571,538 2118.121,538 L2158.121,538 C2158.671,538 2159.121,537.552 2159.121,537 L2159.121,491 C2159.121,490.448 2158.671,490 2158.121,490 L2158.121,490 Z" id="Fill-5242" fill="#000000" mask="url(#mask-2)"></path>
                    <polygon id="Fill-5243" fill="#000000" mask="url(#mask-2)" points="2123.121 516 2153.121 516 2153.121 514 2123.121 514"></polygon>
                    <polygon id="Fill-5244" fill="#000000" mask="url(#mask-2)" points="2123.121 528 2153.121 528 2153.121 526 2123.121 526"></polygon>
                    <polygon id="Fill-5245" fill="#000000" mask="url(#mask-2)" points="2123.121 504 2153.121 504 2153.121 502 2123.121 502"></polygon>
                </g>
            </g>
            <g transform="translate(210.000000, 1.000000)"></g>
        </g>
    </g>
</svg>