<?xml version="1.0" encoding="UTF-8"?>
<svg width="48px" height="48px" viewBox="0 0 48 48" version="1.1" xmlns="http://www.w3.org/2000/svg" xmlns:xlink="http://www.w3.org/1999/xlink">
    <!-- Generator: Sketch 40.1 (33804) - http://www.bohemiancoding.com/sketch -->
    <title>Search_48</title>
    <desc>Created with Sketch.</desc>
    <defs>
        <polygon id="path-1" points="0 4663 3252.123 4663 3252.123 0 0 0"></polygon>
    </defs>
    <g stroke="none" stroke-width="1" fill="none" fill-rule="evenodd">
        <g transform="translate(-3204.000000, -981.000000)">
            <g>
                <g transform="translate(0.000000, 1.000000)">
                    <mask id="mask-2" fill="white">
                        <use xlink:href="#path-1"></use>
                    </mask>
                    <g></g>
                    <path d="M3222.1208,984 C3229.8408,984 3236.1208,990.28 3236.1208,998 C3236.1208,1000.592 3235.4008,1003.013 3234.1678,1005.097 C3232.9618,1007.136 3231.2568,1008.841 3229.2178,1010.047 C3227.1338,1011.28 3224.7128,1012 3222.1208,1012 C3214.4008,1012 3208.1208,1005.72 3208.1208,998 C3208.1208,990.28 3214.4008,984 3222.1208,984 M3222.1208,1016 C3225.8258,1016 3229.2668,1014.878 3232.1298,1012.959 L3234.1028,1014.932 C3234.0188,1016.39 3234.5158,1017.875 3235.6308,1018.99 L3243.0208,1026.32 C3245.0708,1028.35 3248.3808,1028.35 3250.4308,1026.31 C3252.4708,1024.26 3252.4708,1020.95 3250.4408,1018.9 L3243.1108,1011.51 C3241.9998,1010.394 3240.5138,1009.897 3239.0528,1009.982 L3237.0798,1008.009 C3238.9988,1005.146 3240.1208,1001.705 3240.1208,998 C3240.1208,988.06 3232.0608,980 3222.1208,980 C3212.1808,980 3204.1208,988.06 3204.1208,998 C3204.1208,1007.94 3212.1808,1016 3222.1208,1016" id="Fill-7725" fill="#000000" mask="url(#mask-2)"></path>
                </g>
            </g>
            <g transform="translate(420.000000, 1.000000)"></g>
        </g>
    </g>
</svg>