<?xml version="1.0" encoding="UTF-8"?>
<svg width="48px" height="48px" viewBox="0 0 48 48" version="1.1" xmlns="http://www.w3.org/2000/svg" xmlns:xlink="http://www.w3.org/1999/xlink">
    <!-- Generator: Sketch 40.1 (33804) - http://www.bohemiancoding.com/sketch -->
    <title>Search_48</title>
    <desc>Created with Sketch.</desc>
    <defs>
        <polygon id="path-1" points="0 4663 3252.123 4663 3252.123 0 0 0"></polygon>
    </defs>
    <g stroke="none" stroke-width="1" fill="none" fill-rule="evenodd">
        <g transform="translate(-2994.000000, -981.000000)">
            <g>
                <g transform="translate(0.000000, 1.000000)">
                    <mask id="mask-2" fill="white">
                        <use xlink:href="#path-1"></use>
                    </mask>
                    <g></g>
                    <path d="M3029.3606,1011.95 C3030.2406,1011.95 3031.0706,1012.3 3031.6906,1012.92 L3036.3216,1017.589 L3039.0206,1020.31 C3040.2806,1021.58 3040.2706,1023.63 3039.0106,1024.89 C3038.4006,1025.5 3037.5806,1025.84 3036.7206,1025.84 C3035.8606,1025.84 3035.0506,1025.51 3034.4306,1024.9 L3031.7096,1022.201 L3027.0406,1017.57 C3026.4206,1016.95 3026.0706,1016.12 3026.0706,1015.24 C3026.0706,1014.36 3026.4106,1013.54 3027.0306,1012.91 C3027.6516,1012.29 3028.4806,1011.95 3029.3606,1011.95 M3012.1206,982 C3020.9406,982 3028.1206,989.18 3028.1206,998 C3028.1206,1001.145 3027.1946,1004.073 3025.6206,1006.549 C3024.3536,1008.542 3022.6626,1010.233 3020.6706,1011.5 C3018.1936,1013.074 3015.2656,1014 3012.1206,1014 C3003.3006,1014 2996.1206,1006.82 2996.1206,998 C2996.1206,989.18 3003.3006,982 3012.1206,982 M3012.1206,1016 C3015.8256,1016 3019.2676,1014.878 3022.1296,1012.959 L3024.1026,1014.932 C3024.0196,1016.39 3024.5156,1017.875 3025.6306,1018.99 L3033.0206,1026.32 C3034.0506,1027.33 3035.3806,1027.84 3036.7206,1027.84 C3038.0606,1027.84 3039.4006,1027.33 3040.4306,1026.31 C3042.4706,1024.26 3042.4706,1020.95 3040.4406,1018.9 L3033.1106,1011.51 C3032.0706,1010.47 3030.7106,1009.95 3029.3606,1009.95 C3029.2566,1009.95 3029.1546,1009.973 3029.0506,1009.98 L3027.0796,1008.009 C3028.9986,1005.146 3030.1206,1001.705 3030.1206,998 C3030.1206,988.06 3022.0606,980 3012.1206,980 C3002.1806,980 2994.1206,988.06 2994.1206,998 C2994.1206,1007.94 3002.1806,1016 3012.1206,1016" id="Fill-7720" fill="#000000" mask="url(#mask-2)"></path>
                </g>
            </g>
            <g transform="translate(210.000000, 1.000000)"></g>
        </g>
    </g>
</svg>