<?xml version="1.0" encoding="UTF-8"?>
<svg width="48px" height="48px" viewBox="0 0 48 48" version="1.1" xmlns="http://www.w3.org/2000/svg" xmlns:xlink="http://www.w3.org/1999/xlink">
    <!-- Generator: Sketch 40.1 (33804) - http://www.bohemiancoding.com/sketch -->
    <title>Settings_48</title>
    <desc>Created with Sketch.</desc>
    <defs>
        <polygon id="path-1" points="0 4663 3252.123 4663 3252.123 0 0 0"></polygon>
    </defs>
    <g stroke="none" stroke-width="1" fill="none" fill-rule="evenodd">
        <g transform="translate(-2994.000000, -1191.000000)">
            <g>
                <g transform="translate(0.000000, 1.000000)">
                    <mask id="mask-2" fill="white">
                        <use xlink:href="#path-1"></use>
                    </mask>
                    <g></g>
                    <path d="M2996.1208,1212.3899 L3001.7208,1210.2899 L3002.6208,1209.9499 L3002.9208,1209.0399 C3003.1608,1208.2899 3003.4808,1207.5199 3003.8608,1206.7699 L3004.3008,1205.9099 L3003.9008,1205.0399 L3001.4208,1199.5799 L3003.7008,1197.2999 L3009.1608,1199.7799 L3010.0308,1200.1799 L3010.8908,1199.7399 C3011.6408,1199.3599 3012.4108,1199.0399 3013.1608,1198.7999 L3014.0708,1198.4999 L3014.4108,1197.5999 L3016.5108,1191.9999 L3019.7308,1191.9999 L3021.8308,1197.5999 L3022.1708,1198.4999 L3023.0808,1198.7999 C3023.8308,1199.0399 3024.6008,1199.3599 3025.3508,1199.7399 L3026.2108,1200.1799 L3027.0808,1199.7799 L3032.5408,1197.2999 L3034.8208,1199.5799 L3032.3408,1205.0399 L3031.9408,1205.9099 L3032.3808,1206.7699 C3032.7608,1207.5199 3033.0808,1208.2899 3033.3208,1209.0399 L3033.6208,1209.9499 L3034.5208,1210.2899 L3040.1208,1212.3899 L3040.1208,1215.6099 L3034.5208,1217.7099 L3033.6208,1218.0499 L3033.3208,1218.9599 C3033.0808,1219.7099 3032.7608,1220.4799 3032.3808,1221.2299 L3031.9408,1222.0899 L3032.3408,1222.9599 L3034.8208,1228.4199 L3032.5408,1230.6999 L3027.0808,1228.2199 L3026.2108,1227.8199 L3025.3508,1228.2599 C3024.6008,1228.6399 3023.8308,1228.9599 3023.0808,1229.1999 L3022.1708,1229.4999 L3021.8308,1230.3999 L3019.7308,1235.9999 L3016.5108,1235.9999 L3014.4108,1230.3999 L3014.0708,1229.4999 L3013.1608,1229.1999 C3012.4108,1228.9599 3011.6408,1228.6399 3010.8908,1228.2599 L3010.0308,1227.8199 L3009.1608,1228.2199 L3003.7008,1230.6999 L3001.4208,1228.4199 L3003.9008,1222.9599 L3004.3008,1222.0899 L3003.8608,1221.2299 C3003.4808,1220.4799 3003.1608,1219.7099 3002.9208,1218.9599 L3002.6208,1218.0499 L3001.7208,1217.7099 L2996.1208,1215.6099 L2996.1208,1212.3899 Z M2995.0908,1217.3599 L3001.0108,1219.5899 C3001.3008,1220.4699 3001.6608,1221.3199 3002.0808,1222.1399 L2999.4608,1227.8999 C2999.2008,1228.4699 2999.3208,1229.1399 2999.7608,1229.5799 L3002.5408,1232.3599 C3002.8208,1232.6399 3003.2108,1232.7999 3003.6008,1232.7999 C3003.8108,1232.7999 3004.0208,1232.7499 3004.2208,1232.6599 L3009.9808,1230.0399 C3010.8008,1230.4599 3011.6508,1230.8199 3012.5308,1231.1099 L3014.7608,1237.0299 C3014.9708,1237.6099 3015.5308,1237.9999 3016.1608,1237.9999 L3020.0808,1237.9999 C3020.7108,1237.9999 3021.2708,1237.6099 3021.4808,1237.0299 L3023.7108,1231.1099 C3024.5908,1230.8199 3025.4408,1230.4599 3026.2608,1230.0399 L3032.0208,1232.6599 C3032.2208,1232.7499 3032.4308,1232.7999 3032.6408,1232.7999 C3033.0308,1232.7999 3033.4208,1232.6399 3033.7008,1232.3599 L3036.4808,1229.5799 C3036.9208,1229.1399 3037.0408,1228.4699 3036.7808,1227.8999 L3034.1608,1222.1399 C3034.5808,1221.3199 3034.9408,1220.4699 3035.2308,1219.5899 L3041.1508,1217.3599 C3041.7308,1217.1499 3042.1208,1216.5899 3042.1208,1215.9599 L3042.1208,1212.0399 C3042.1208,1211.4099 3041.7308,1210.8499 3041.1508,1210.6399 L3035.2308,1208.4099 C3034.9408,1207.5299 3034.5808,1206.6799 3034.1608,1205.8599 L3036.7808,1200.0999 C3037.0408,1199.5299 3036.9208,1198.8599 3036.4808,1198.4199 L3033.7008,1195.6399 C3033.4208,1195.3599 3033.0308,1195.1999 3032.6408,1195.1999 C3032.4308,1195.1999 3032.2208,1195.2499 3032.0208,1195.3399 L3026.2608,1197.9599 C3025.4408,1197.5399 3024.5908,1197.1799 3023.7108,1196.8899 L3021.4808,1190.9699 C3021.2708,1190.3899 3020.7108,1189.9999 3020.0808,1189.9999 L3016.1608,1189.9999 C3015.5308,1189.9999 3014.9708,1190.3899 3014.7608,1190.9699 L3012.5308,1196.8899 C3011.6508,1197.1799 3010.8008,1197.5399 3009.9808,1197.9599 L3004.2208,1195.3399 C3004.0208,1195.2499 3003.8108,1195.1999 3003.6008,1195.1999 C3003.2108,1195.1999 3002.8208,1195.3599 3002.5408,1195.6399 L2999.7608,1198.4199 C2999.3208,1198.8599 2999.2008,1199.5299 2999.4608,1200.0999 L3002.0808,1205.8599 C3001.6608,1206.6799 3001.3008,1207.5299 3001.0108,1208.4099 L2995.0908,1210.6399 C2994.5108,1210.8499 2994.1208,1211.4099 2994.1208,1212.0399 L2994.1208,1215.9599 C2994.1208,1216.5899 2994.5108,1217.1499 2995.0908,1217.3599 L2995.0908,1217.3599 Z" id="Fill-7790" fill="#000000" mask="url(#mask-2)"></path>
                    <path d="M3018.1208,1208 C3021.4308,1208 3024.1208,1210.69 3024.1208,1214 C3024.1208,1217.31 3021.4308,1220 3018.1208,1220 C3014.8108,1220 3012.1208,1217.31 3012.1208,1214 C3012.1208,1210.69 3014.8108,1208 3018.1208,1208 M3018.1208,1222 C3022.5308,1222 3026.1208,1218.41 3026.1208,1214 C3026.1208,1209.59 3022.5308,1206 3018.1208,1206 C3013.7108,1206 3010.1208,1209.59 3010.1208,1214 C3010.1208,1218.41 3013.7108,1222 3018.1208,1222" id="Fill-7791" fill="#000000" mask="url(#mask-2)"></path>
                </g>
            </g>
            <g transform="translate(210.000000, 1.000000)"></g>
        </g>
    </g>
</svg>