<?xml version="1.0" encoding="iso-8859-1"?>
<!-- Generator: Adobe Illustrator 19.0.0, SVG Export Plug-In . SVG Version: 6.00 Build 0)  -->
<svg version="1.1" id="Capa_1" xmlns="http://www.w3.org/2000/svg" xmlns:xlink="http://www.w3.org/1999/xlink" x="0px" y="0px"
	 viewBox="0 0 489.051 489.051" style="enable-background:new 0 0 489.051 489.051;" xml:space="preserve">
<g>
	<g>
		<g>
			<g>
				<path d="M306.065,484.56l-163.3-117.6h-95.8c-26,0-46.8-21.8-46.8-48.9v-148.7c0-27,20.8-48.9,46.8-48.9h95.7l163.4-116.6
					c21.7-11.9,33,6.7,32.3,15.6v448.4C339.865,477.76,323.365,498.06,306.065,484.56z M46.965,162.06c-3.1,0-5.2,3.1-5.2,8.3v148.8
					c0,4.2,3.1,8.3,5.2,8.3h102c4.2,0,8.3,1,11.4,4.2l136.3,97.7V60.06l-136.3,97.8c-3.1,2.1-7.3,4.2-11.4,4.2H46.965z"/>
			</g>
			<g>
				<path d="M446.465,401.36c-10.4-3.1-17.7-13.5-14.6-25c37.5-149.8,1-263.2,0-264.2c-3.1-10.4,2.1-21.8,12.5-26
					c10.4-3.1,21.8,2.1,26,12.5c2.1,5.2,40.6,125.9,0,287.1C468.365,396.16,458.165,405.46,446.465,401.36z"/>
			</g>
			<g>
				<path d="M385.165,322.26c-10.4-3.1-17.7-13.5-14.6-25c14.6-59.3,1-105.1,0-106.1c-3.1-10.4,2.1-21.8,13.5-26
					c10.4-3.1,21.8,2.1,26,12.5c1,2.1,18.7,57.2,0,129C407.965,317.06,398.365,325.86,385.165,322.26z"/>
			</g>
		</g>
	</g>
</g>
<g>
</g>
<g>
</g>
<g>
</g>
<g>
</g>
<g>
</g>
<g>
</g>
<g>
</g>
<g>
</g>
<g>
</g>
<g>
</g>
<g>
</g>
<g>
</g>
<g>
</g>
<g>
</g>
<g>
</g>
</svg>
