<?xml version="1.0" encoding="UTF-8"?>
<svg width="48px" height="48px" viewBox="0 0 48 48" version="1.1" xmlns="http://www.w3.org/2000/svg" xmlns:xlink="http://www.w3.org/1999/xlink">
    <!-- Generator: Sketch 40.1 (33804) - http://www.bohemiancoding.com/sketch -->
    <title>Volume-Up_48</title>
    <desc>Created with Sketch.</desc>
    <defs>
        <polygon id="path-1" points="0 4663 3252.123 4663 3252.123 0 0 0"></polygon>
    </defs>
    <g stroke="none" stroke-width="1" fill="none" fill-rule="evenodd">
        <g transform="translate(-2994.000000, -3711.000000)">
            <g>
                <g transform="translate(0.000000, 1.000000)">
                    <mask id="mask-2" fill="white">
                        <use xlink:href="#path-1"></use>
                    </mask>
                    <g></g>
                    <path d="M2996.1208,3727.9999 L3004.5308,3727.9999 L3005.3508,3727.9999 L3005.9308,3727.4299 L3013.1208,3720.3599 L3013.1208,3730.1699 L3013.1208,3730.1739 L3013.1208,3737.8259 L3013.1208,3737.8299 L3013.1208,3747.5799 L3006.2608,3740.5999 L3005.6708,3739.9999 L3004.8408,3739.9999 L2996.1208,3739.9999 L2996.1208,3727.9999 Z M2996.1208,3741.9999 L3004.8408,3741.9999 L3013.3708,3750.6899 C3013.5808,3750.8999 3013.8308,3750.9999 3014.0908,3750.9999 C3014.6108,3750.9999 3015.1208,3750.5899 3015.1208,3749.9699 L3015.1208,3739.2199 L3015.1208,3739.2169 L3015.1208,3728.7829 L3015.1208,3728.7799 L3015.1208,3718.0299 C3015.1208,3717.4099 3014.6208,3716.9999 3014.0908,3716.9999 C3013.8408,3716.9999 3013.5908,3717.0899 3013.3808,3717.2999 L3004.5308,3725.9999 L2996.1208,3725.9999 C2995.0208,3725.9999 2994.1208,3726.8999 2994.1208,3727.9999 L2994.1208,3739.9999 C2994.1208,3741.0999 2995.0208,3741.9999 2996.1208,3741.9999 L2996.1208,3741.9999 Z" id="Fill-9194" fill="#000000" mask="url(#mask-2)"></path>
                    <path d="M3032.8843,3716.4253 C3032.8853,3716.4263 3032.8863,3716.4273 3032.8873,3716.4283 C3037.3563,3720.9463 3040.1213,3727.1543 3040.1213,3734.0003 C3040.1213,3740.8453 3037.3563,3747.0533 3032.8873,3751.5713 C3032.8863,3751.5723 3032.8853,3751.5733 3032.8843,3751.5743 L3034.5523,3752.7343 C3039.2353,3747.8783 3042.1213,3741.2783 3042.1213,3734.0003 C3042.1213,3726.7223 3039.2353,3720.1213 3034.5523,3715.2653 L3032.8843,3716.4253 Z" id="Fill-9195" fill="#000000" mask="url(#mask-2)"></path>
                    <path d="M3026.1619,3746.8979 L3027.0239,3747.4969 L3027.8509,3748.0729 C3031.6919,3744.5959 3034.1209,3739.5869 3034.1209,3733.9999 C3034.1209,3728.4129 3031.6919,3723.4039 3027.8509,3719.9269 L3027.0239,3720.5019 L3026.1619,3721.1019 C3029.8019,3724.2229 3032.1209,3728.8429 3032.1209,3733.9999 C3032.1209,3739.1569 3029.8019,3743.7769 3026.1619,3746.8979" id="Fill-9196" fill="#000000" mask="url(#mask-2)"></path>
                    <path d="M3019.1626,3742.0291 L3020.0946,3742.6771 L3020.9856,3743.2971 C3024.0686,3741.3491 3026.1206,3737.9201 3026.1206,3734.0001 C3026.1206,3730.0791 3024.0686,3726.6501 3020.9856,3724.7031 L3020.0946,3725.3231 L3019.1626,3725.9711 C3022.0976,3727.4561 3024.1206,3730.4941 3024.1206,3734.0001 C3024.1206,3737.5061 3022.0976,3740.5441 3019.1626,3742.0291" id="Fill-9197" fill="#000000" mask="url(#mask-2)"></path>
                </g>
            </g>
            <g transform="translate(210.000000, 1.000000)"></g>
        </g>
    </g>
</svg>