<?xml version="1.0" encoding="UTF-8"?>
<svg width="48px" height="48px" viewBox="0 0 48 48" version="1.1" xmlns="http://www.w3.org/2000/svg" xmlns:xlink="http://www.w3.org/1999/xlink">
    <!-- Generator: Sketch 40.1 (33804) - http://www.bohemiancoding.com/sketch -->
    <title>Volume-Up_48</title>
    <desc>Created with Sketch.</desc>
    <defs>
        <polygon id="path-1" points="0 4663 3252.123 4663 3252.123 0 0 0"></polygon>
    </defs>
    <g stroke="none" stroke-width="1" fill="none" fill-rule="evenodd">
        <g transform="translate(-3204.000000, -3711.000000)">
            <g>
                <g transform="translate(0.000000, 1.000000)">
                    <mask id="mask-2" fill="white">
                        <use xlink:href="#path-1"></use>
                    </mask>
                    <g></g>
                    <path d="M3206.1208,3741.9999 L3214.8408,3741.9999 L3223.3708,3750.6899 C3224.0108,3751.3499 3225.1208,3750.8899 3225.1208,3749.9699 L3225.1208,3739.2199 L3225.1208,3739.2169 L3225.1208,3728.7829 L3225.1208,3728.7799 L3225.1208,3718.0299 C3225.1208,3717.1199 3224.0308,3716.6599 3223.3808,3717.2999 L3214.5308,3725.9999 L3206.1208,3725.9999 C3205.0208,3725.9999 3204.1208,3726.8999 3204.1208,3727.9999 L3204.1208,3739.9999 C3204.1208,3741.0999 3205.0208,3741.9999 3206.1208,3741.9999" id="Fill-9213" fill="#000000" mask="url(#mask-2)"></path>
                    <path d="M3242.8843,3716.4253 C3242.8853,3716.4263 3242.8863,3716.4283 3242.8883,3716.4293 C3247.3563,3720.9473 3250.1213,3727.1543 3250.1213,3734.0003 C3250.1213,3740.8453 3247.3563,3747.0523 3242.8883,3751.5703 C3242.8863,3751.5713 3242.8853,3751.5733 3242.8843,3751.5743 L3244.5523,3752.7343 C3249.2353,3747.8783 3252.1213,3741.2783 3252.1213,3734.0003 C3252.1213,3726.7223 3249.2353,3720.1213 3244.5523,3715.2653 L3242.8843,3716.4253 Z" id="Fill-9214" fill="#000000" mask="url(#mask-2)"></path>
                    <path d="M3236.1646,3746.8955 C3236.1636,3746.8965 3236.1626,3746.8975 3236.1616,3746.8975 L3237.8516,3748.0725 C3237.8526,3748.0725 3237.8536,3748.0705 3237.8546,3748.0695 C3241.6936,3744.5925 3244.1206,3739.5845 3244.1206,3733.9995 C3244.1206,3728.4145 3241.6936,3723.4075 3237.8546,3719.9305 L3237.8516,3719.9265 L3236.1616,3721.1015 C3236.1626,3721.1025 3236.1636,3721.1035 3236.1646,3721.1045 C3239.8026,3724.2255 3242.1206,3728.8445 3242.1206,3733.9995 C3242.1206,3739.1555 3239.8026,3743.7745 3236.1646,3746.8955" id="Fill-9215" fill="#000000" mask="url(#mask-2)"></path>
                    <path d="M3229.1626,3742.0291 L3230.0946,3742.6771 L3230.9856,3743.2971 C3234.0686,3741.3491 3236.1206,3737.9201 3236.1206,3734.0001 C3236.1206,3730.0791 3234.0686,3726.6501 3230.9856,3724.7031 L3230.0946,3725.3231 L3229.1626,3725.9711 C3232.0976,3727.4561 3234.1206,3730.4941 3234.1206,3734.0001 C3234.1206,3737.5061 3232.0976,3740.5441 3229.1626,3742.0291" id="Fill-9216" fill="#000000" mask="url(#mask-2)"></path>
                </g>
            </g>
            <g transform="translate(420.000000, 1.000000)"></g>
        </g>
    </g>
</svg>